<?xml version="1.0" encoding="UTF-8" standalone="no"?>
<!DOCTYPE svg PUBLIC "-//W3C//DTD SVG 1.1//EN"
 "http://www.w3.org/Graphics/SVG/1.1/DTD/svg11.dtd">
<!-- Generated by graphviz version 3.0.0 (20220226.1711)
 -->
<!-- Title: dependencies Pages: 1 -->
<svg width="328pt" height="174pt"
 viewBox="0.00 0.00 328.00 173.80" xmlns="http://www.w3.org/2000/svg" xmlns:xlink="http://www.w3.org/1999/xlink">
<g id="graph0" class="graph" transform="scale(1 1) rotate(0) translate(4 169.8)">
<title>dependencies</title>
<polygon fill="white" stroke="transparent" points="-4,4 -4,-169.8 324,-169.8 324,4 -4,4"/>
<text text-anchor="middle" x="160" y="-8.2" font-family="sans-serif" font-size="14.00">dependencies</text>
<g id="clust1" class="cluster">
<title>cluster_ParkingModule</title>
<polygon fill="none" stroke="black" stroke-dasharray="1,5" points="8,-32.8 8,-157.8 312,-157.8 312,-32.8 8,-32.8"/>
</g>
<g id="clust3" class="cluster">
<title>cluster_ParkingModule_imports</title>
<polygon fill="none" stroke="black" points="180,-40.8 180,-92.8 304,-92.8 304,-40.8 180,-40.8"/>
</g>
<g id="clust6" class="cluster">
<title>cluster_ParkingModule_providers</title>
<polygon fill="none" stroke="black" points="16,-40.8 16,-92.8 172,-92.8 172,-40.8 16,-40.8"/>
</g>
<!-- AuthApiModule -->
<g id="node1" class="node">
<title>AuthApiModule</title>
<polygon fill="#8dd3c7" stroke="black" points="296.05,-84.8 293.05,-88.8 272.05,-88.8 269.05,-84.8 187.95,-84.8 187.95,-48.8 296.05,-48.8 296.05,-84.8"/>
<text text-anchor="middle" x="242" y="-62.6" font-family="Times,serif" font-size="14.00">AuthApiModule</text>
</g>
<!-- ParkingModule -->
<g id="node2" class="node">
<title>ParkingModule</title>
<polygon fill="#8dd3c7" stroke="black" points="219.6,-149.8 216.6,-153.8 195.6,-153.8 192.6,-149.8 116.4,-149.8 116.4,-113.8 219.6,-113.8 219.6,-149.8"/>
<text text-anchor="middle" x="168" y="-127.6" font-family="Times,serif" font-size="14.00">ParkingModule</text>
</g>
<!-- AuthApiModule&#45;&gt;ParkingModule -->
<g id="edge1" class="edge">
<title>AuthApiModule&#45;&gt;ParkingModule</title>
<path fill="none" stroke="black" d="M203.64,-84.91C203.64,-84.91 203.64,-103.79 203.64,-103.79"/>
<polygon fill="black" stroke="black" points="200.14,-103.79 203.64,-113.79 207.14,-103.79 200.14,-103.79"/>
</g>
<!-- ParkingService -->
<g id="node3" class="node">
<title>ParkingService</title>
<ellipse fill="#fdb462" stroke="black" cx="94" cy="-66.8" rx="70.07" ry="18"/>
<text text-anchor="middle" x="94" y="-62.6" font-family="Times,serif" font-size="14.00">ParkingService</text>
</g>
<!-- ParkingService&#45;&gt;ParkingModule -->
<g id="edge2" class="edge">
<title>ParkingService&#45;&gt;ParkingModule</title>
<path fill="none" stroke="black" d="M140.24,-80.58C140.24,-80.58 140.24,-103.35 140.24,-103.35"/>
<polygon fill="black" stroke="black" points="136.74,-103.35 140.24,-113.35 143.74,-103.35 136.74,-103.35"/>
</g>
</g>
</svg>
