<?xml version="1.0" encoding="UTF-8" standalone="no"?>
<!DOCTYPE svg PUBLIC "-//W3C//DTD SVG 1.1//EN"
 "http://www.w3.org/Graphics/SVG/1.1/DTD/svg11.dtd">
<!-- Generated by graphviz version 3.0.0 (20220226.1711)
 -->
<!-- Title: dependencies Pages: 1 -->
<svg width="148pt" height="247pt"
 viewBox="0.00 0.00 148.00 246.80" xmlns="http://www.w3.org/2000/svg" xmlns:xlink="http://www.w3.org/1999/xlink">
<g id="graph0" class="graph" transform="scale(1 1) rotate(0) translate(4 242.8)">
<title>dependencies</title>
<polygon fill="white" stroke="transparent" points="-4,4 -4,-242.8 144,-242.8 144,4 -4,4"/>
<text text-anchor="middle" x="70" y="-8.2" font-family="sans-serif" font-size="14.00">dependencies</text>
<g id="clust1" class="cluster">
<title>cluster_AuthApiModule</title>
<polygon fill="none" stroke="black" stroke-dasharray="1,5" points="8,-32.8 8,-230.8 132,-230.8 132,-32.8 8,-32.8"/>
</g>
<g id="clust4" class="cluster">
<title>cluster_AuthApiModule_exports</title>
<polygon fill="none" stroke="black" points="28,-170.8 28,-222.8 112,-222.8 112,-170.8 28,-170.8"/>
</g>
<g id="clust6" class="cluster">
<title>cluster_AuthApiModule_providers</title>
<polygon fill="none" stroke="black" points="17,-40.8 17,-92.8 123,-92.8 123,-40.8 17,-40.8"/>
</g>
<!-- AuthApi  -->
<g id="node1" class="node">
<title>AuthApi </title>
<polygon fill="#fb8072" stroke="black" points="104,-214.8 36,-214.8 36,-178.8 104,-178.8 104,-214.8"/>
<text text-anchor="middle" x="70" y="-192.6" font-family="Times,serif" font-size="14.00">AuthApi </text>
</g>
<!-- AuthApiModule -->
<g id="node2" class="node">
<title>AuthApiModule</title>
<polygon fill="#8dd3c7" stroke="black" points="124.05,-149.8 121.05,-153.8 100.05,-153.8 97.05,-149.8 15.95,-149.8 15.95,-113.8 124.05,-113.8 124.05,-149.8"/>
<text text-anchor="middle" x="70" y="-127.6" font-family="Times,serif" font-size="14.00">AuthApiModule</text>
</g>
<!-- AuthApiModule&#45;&gt;AuthApi  -->
<g id="edge1" class="edge">
<title>AuthApiModule&#45;&gt;AuthApi </title>
<path fill="none" stroke="black" stroke-dasharray="5,2" d="M70,-149.91C70,-149.91 70,-168.79 70,-168.79"/>
<polygon fill="black" stroke="black" points="66.5,-168.79 70,-178.79 73.5,-168.79 66.5,-168.79"/>
</g>
<!-- AuthApi -->
<g id="node3" class="node">
<title>AuthApi</title>
<ellipse fill="#fdb462" stroke="black" cx="70" cy="-66.8" rx="44.67" ry="18"/>
<text text-anchor="middle" x="70" y="-62.6" font-family="Times,serif" font-size="14.00">AuthApi</text>
</g>
<!-- AuthApi&#45;&gt;AuthApiModule -->
<g id="edge2" class="edge">
<title>AuthApi&#45;&gt;AuthApiModule</title>
<path fill="none" stroke="black" d="M70,-84.91C70,-84.91 70,-103.79 70,-103.79"/>
<polygon fill="black" stroke="black" points="66.5,-103.79 70,-113.79 73.5,-103.79 66.5,-103.79"/>
</g>
</g>
</svg>
