<?xml version="1.0" encoding="UTF-8" standalone="no"?>
<!DOCTYPE svg PUBLIC "-//W3C//DTD SVG 1.1//EN"
 "http://www.w3.org/Graphics/SVG/1.1/DTD/svg11.dtd">
<!-- Generated by graphviz version 3.0.0 (20220226.1711)
 -->
<!-- Title: dependencies Pages: 1 -->
<svg width="286pt" height="174pt"
 viewBox="0.00 0.00 286.00 173.80" xmlns="http://www.w3.org/2000/svg" xmlns:xlink="http://www.w3.org/1999/xlink">
<g id="graph0" class="graph" transform="scale(1 1) rotate(0) translate(4 169.8)">
<title>dependencies</title>
<polygon fill="white" stroke="transparent" points="-4,4 -4,-169.8 282,-169.8 282,4 -4,4"/>
<text text-anchor="middle" x="139" y="-8.2" font-family="sans-serif" font-size="14.00">dependencies</text>
<g id="clust1" class="cluster">
<title>cluster_AppModule</title>
<polygon fill="none" stroke="black" stroke-dasharray="1,5" points="8,-32.8 8,-157.8 270,-157.8 270,-32.8 8,-32.8"/>
</g>
<g id="clust3" class="cluster">
<title>cluster_AppModule_imports</title>
<polygon fill="none" stroke="black" points="16,-40.8 16,-92.8 262,-92.8 262,-40.8 16,-40.8"/>
</g>
<!-- AuthApiModule -->
<g id="node1" class="node">
<title>AuthApiModule</title>
<polygon fill="#8dd3c7" stroke="black" points="254.05,-84.8 251.05,-88.8 230.05,-88.8 227.05,-84.8 145.95,-84.8 145.95,-48.8 254.05,-48.8 254.05,-84.8"/>
<text text-anchor="middle" x="200" y="-62.6" font-family="Times,serif" font-size="14.00">AuthApiModule</text>
</g>
<!-- AppModule -->
<g id="node3" class="node">
<title>AppModule</title>
<polygon fill="#8dd3c7" stroke="black" points="179.66,-149.8 176.66,-153.8 155.66,-153.8 152.66,-149.8 96.34,-149.8 96.34,-113.8 179.66,-113.8 179.66,-149.8"/>
<text text-anchor="middle" x="138" y="-127.6" font-family="Times,serif" font-size="14.00">AppModule</text>
</g>
<!-- AuthApiModule&#45;&gt;AppModule -->
<g id="edge1" class="edge">
<title>AuthApiModule&#45;&gt;AppModule</title>
<path fill="none" stroke="black" d="M162.78,-84.91C162.78,-84.91 162.78,-103.79 162.78,-103.79"/>
<polygon fill="black" stroke="black" points="159.28,-103.79 162.78,-113.79 166.28,-103.79 159.28,-103.79"/>
</g>
<!-- ParkingModule -->
<g id="node2" class="node">
<title>ParkingModule</title>
<polygon fill="#8dd3c7" stroke="black" points="127.6,-84.8 124.6,-88.8 103.6,-88.8 100.6,-84.8 24.4,-84.8 24.4,-48.8 127.6,-48.8 127.6,-84.8"/>
<text text-anchor="middle" x="76" y="-62.6" font-family="Times,serif" font-size="14.00">ParkingModule</text>
</g>
<!-- ParkingModule&#45;&gt;AppModule -->
<g id="edge2" class="edge">
<title>ParkingModule&#45;&gt;AppModule</title>
<path fill="none" stroke="black" d="M111.86,-84.91C111.86,-84.91 111.86,-103.79 111.86,-103.79"/>
<polygon fill="black" stroke="black" points="108.36,-103.79 111.86,-113.79 115.36,-103.79 108.36,-103.79"/>
</g>
</g>
</svg>
