<?xml version="1.0" encoding="UTF-8" standalone="no"?>
<!DOCTYPE svg PUBLIC "-//W3C//DTD SVG 1.1//EN"
 "http://www.w3.org/Graphics/SVG/1.1/DTD/svg11.dtd">
<!-- Generated by graphviz version 3.0.0 (20220226.1711)
 -->
<!-- Title: dependencies Pages: 1 -->
<svg width="574pt" height="250pt"
 viewBox="0.00 0.00 574.00 249.80" xmlns="http://www.w3.org/2000/svg" xmlns:xlink="http://www.w3.org/1999/xlink">
<g id="graph0" class="graph" transform="scale(1 1) rotate(0) translate(4 245.8)">
<title>dependencies</title>
<polygon fill="white" stroke="transparent" points="-4,4 -4,-245.8 570,-245.8 570,4 -4,4"/>
<text text-anchor="middle" x="283" y="-8.2" font-family="sans-serif" font-size="14.00">dependencies</text>
<g id="clust1" class="cluster">
<title>cluster_AppModule</title>
<polygon fill="none" stroke="black" stroke-dasharray="1,5" points="188,-32.8 188,-233.8 336,-233.8 336,-32.8 188,-32.8"/>
</g>
<g id="clust3" class="cluster">
<title>cluster_AppModule_imports</title>
<polygon fill="none" stroke="black" points="196,-40.8 196,-168.8 320,-168.8 320,-40.8 196,-40.8"/>
</g>
<g id="clust7" class="cluster">
<title>cluster_AuthApiModule</title>
<polygon fill="none" stroke="black" stroke-dasharray="1,5" points="344,-108.8 344,-176.8 558,-176.8 558,-108.8 344,-108.8"/>
</g>
<g id="clust10" class="cluster">
<title>cluster_AuthApiModule_exports</title>
<polygon fill="none" stroke="black" points="466,-116.8 466,-168.8 550,-168.8 550,-116.8 466,-116.8"/>
</g>
<g id="clust12" class="cluster">
<title>cluster_AuthApiModule_providers</title>
<polygon fill="none" stroke="black" points="352,-116.8 352,-168.8 458,-168.8 458,-116.8 352,-116.8"/>
</g>
<g id="clust13" class="cluster">
<title>cluster_ParkingModule</title>
<polygon fill="none" stroke="black" stroke-dasharray="1,5" points="8,-32.8 8,-100.8 180,-100.8 180,-32.8 8,-32.8"/>
</g>
<g id="clust18" class="cluster">
<title>cluster_ParkingModule_providers</title>
<polygon fill="none" stroke="black" points="16,-40.8 16,-92.8 172,-92.8 172,-40.8 16,-40.8"/>
</g>
<!-- AuthApiModule -->
<g id="node1" class="node">
<title>AuthApiModule</title>
<polygon fill="#8dd3c7" stroke="black" points="312.05,-84.8 309.05,-88.8 288.05,-88.8 285.05,-84.8 203.95,-84.8 203.95,-48.8 312.05,-48.8 312.05,-84.8"/>
<text text-anchor="middle" x="258" y="-62.6" font-family="Times,serif" font-size="14.00">AuthApiModule</text>
</g>
<!-- ParkingModule -->
<g id="node2" class="node">
<title>ParkingModule</title>
<polygon fill="#8dd3c7" stroke="black" points="307.6,-160.8 304.6,-164.8 283.6,-164.8 280.6,-160.8 204.4,-160.8 204.4,-124.8 307.6,-124.8 307.6,-160.8"/>
<text text-anchor="middle" x="256" y="-138.6" font-family="Times,serif" font-size="14.00">ParkingModule</text>
</g>
<!-- AuthApiModule&#45;&gt;ParkingModule -->
<g id="edge5" class="edge">
<title>AuthApiModule&#45;&gt;ParkingModule</title>
<path fill="none" stroke="black" d="M256,-84.81C256,-84.81 256,-114.65 256,-114.65"/>
<polygon fill="black" stroke="black" points="252.5,-114.65 256,-124.65 259.5,-114.65 252.5,-114.65"/>
</g>
<!-- AppModule -->
<g id="node3" class="node">
<title>AppModule</title>
<polygon fill="#8dd3c7" stroke="black" points="312.66,-225.8 309.66,-229.8 288.66,-229.8 285.66,-225.8 229.34,-225.8 229.34,-189.8 312.66,-189.8 312.66,-225.8"/>
<text text-anchor="middle" x="271" y="-203.6" font-family="Times,serif" font-size="14.00">AppModule</text>
</g>
<!-- AuthApiModule&#45;&gt;AppModule -->
<g id="edge1" class="edge">
<title>AuthApiModule&#45;&gt;AppModule</title>
<path fill="none" stroke="black" d="M312.09,-75.8C325.69,-75.8 336.5,-75.8 336.5,-75.8 336.5,-75.8 336.5,-207.8 336.5,-207.8 336.5,-207.8 322.85,-207.8 322.85,-207.8"/>
<polygon fill="black" stroke="black" points="322.85,-204.3 312.85,-207.8 322.85,-211.3 322.85,-204.3"/>
</g>
<!-- AuthApi  -->
<g id="node4" class="node">
<title>AuthApi </title>
<polygon fill="#fb8072" stroke="black" points="542,-160.8 474,-160.8 474,-124.8 542,-124.8 542,-160.8"/>
<text text-anchor="middle" x="508" y="-138.6" font-family="Times,serif" font-size="14.00">AuthApi </text>
</g>
<!-- AuthApiModule&#45;&gt;AuthApi  -->
<g id="edge3" class="edge">
<title>AuthApiModule&#45;&gt;AuthApi </title>
<path fill="none" stroke="black" stroke-dasharray="5,2" d="M312.25,-57.8C385.77,-57.8 508,-57.8 508,-57.8 508,-57.8 508,-114.77 508,-114.77"/>
<polygon fill="black" stroke="black" points="504.5,-114.77 508,-124.77 511.5,-114.77 504.5,-114.77"/>
</g>
<!-- ParkingModule&#45;&gt;AppModule -->
<g id="edge2" class="edge">
<title>ParkingModule&#45;&gt;AppModule</title>
<path fill="none" stroke="black" d="M268.36,-160.91C268.36,-160.91 268.36,-179.79 268.36,-179.79"/>
<polygon fill="black" stroke="black" points="264.86,-179.79 268.36,-189.79 271.86,-179.79 264.86,-179.79"/>
</g>
<!-- AuthApi -->
<g id="node5" class="node">
<title>AuthApi</title>
<ellipse fill="#fdb462" stroke="black" cx="405" cy="-142.8" rx="44.67" ry="18"/>
<text text-anchor="middle" x="405" y="-138.6" font-family="Times,serif" font-size="14.00">AuthApi</text>
</g>
<!-- AuthApi&#45;&gt;AuthApiModule -->
<g id="edge4" class="edge">
<title>AuthApi&#45;&gt;AuthApiModule</title>
<path fill="none" stroke="black" d="M405,-124.79C405,-102.31 405,-66.8 405,-66.8 405,-66.8 322.32,-66.8 322.32,-66.8"/>
<polygon fill="black" stroke="black" points="322.32,-63.3 312.32,-66.8 322.32,-70.3 322.32,-63.3"/>
</g>
<!-- ParkingService -->
<g id="node6" class="node">
<title>ParkingService</title>
<ellipse fill="#fdb462" stroke="black" cx="94" cy="-66.8" rx="70.07" ry="18"/>
<text text-anchor="middle" x="94" y="-62.6" font-family="Times,serif" font-size="14.00">ParkingService</text>
</g>
<!-- ParkingService&#45;&gt;ParkingModule -->
<g id="edge6" class="edge">
<title>ParkingService&#45;&gt;ParkingModule</title>
<path fill="none" stroke="black" d="M94,-84.81C94,-107.29 94,-142.8 94,-142.8 94,-142.8 194.3,-142.8 194.3,-142.8"/>
<polygon fill="black" stroke="black" points="194.3,-146.3 204.3,-142.8 194.3,-139.3 194.3,-146.3"/>
</g>
</g>
</svg>
